<?xml version="1.0" standalone="no"?>
<!DOCTYPE svg PUBLIC "-//W3C//DTD SVG 20010904//EN"
 "http://www.w3.org/TR/2001/REC-SVG-20010904/DTD/svg10.dtd">
<svg version="1.0" xmlns="http://www.w3.org/2000/svg"
 width="363.000000pt" height="363.000000pt" viewBox="0 0 363.000000 363.000000"
 preserveAspectRatio="xMidYMid meet">

<g transform="translate(0.000000,363.000000) scale(0.100000,-0.100000)"
fill="#66CCFF" stroke="none">
<path d="M3078 2806 c-53 -19 -70 -32 -181 -132 -54 -49 -123 -110 -154 -136
l-55 -47 -37 23 c-32 21 -37 29 -46 84 -5 33 -13 63 -16 66 -3 3 -25 -17 -49
-45 l-43 -51 -64 5 c-34 2 -63 1 -63 -3 0 -15 52 -121 57 -116 3 3 -2 25 -10
50 l-16 46 53 0 c50 0 56 3 89 39 33 37 36 38 41 18 3 -12 6 -34 6 -49 0 -21
10 -35 40 -57 l39 -28 -44 -32 c-42 -30 -46 -31 -152 -31 -112 0 -153 -12
-153 -46 0 -11 -15 -14 -66 -14 -58 0 -66 2 -71 21 -8 30 -42 39 -144 39 -50
0 -98 4 -107 9 -25 13 -106 -28 -110 -56 -3 -18 -11 -22 -60 -25 -58 -4 -82 4
-82 28 0 10 9 12 33 8 l32 -5 -31 14 c-43 20 -74 63 -74 103 0 19 4 34 9 34 4
0 30 -16 57 -36 l49 -37 -46 49 c-26 27 -52 59 -59 72 -13 27 -5 75 17 97 28
28 55 16 137 -63 48 -45 98 -84 124 -94 23 -9 42 -15 42 -14 0 1 -21 18 -47
36 -27 18 -80 64 -120 102 -66 63 -75 69 -109 66 -60 -5 -76 -36 -80 -157 -3
-75 0 -111 11 -137 8 -20 15 -48 15 -61 0 -14 12 -37 28 -51 25 -25 27 -31 21
-77 -3 -27 -3 -60 2 -71 4 -12 3 -26 -2 -31 -8 -8 -34 -194 -91 -641 -16 -133
-30 -126 245 -130 l223 -3 10 -32 9 -32 259 -2 c219 -2 264 0 292 13 65 31 71
53 117 412 l42 329 110 6 c126 7 290 39 346 68 42 21 62 49 53 73 -3 9 -1 16
4 16 6 0 27 16 45 35 65 67 69 163 9 227 -23 25 -24 30 -12 58 17 42 8 106
-24 171 -60 120 -144 162 -248 125z m103 -33 c39 -23 79 -105 79 -162 0 -40
-5 -49 -44 -85 -24 -23 -90 -72 -147 -110 -158 -105 -153 -108 29 -17 56 28
116 52 134 53 32 3 33 1 42 -45 14 -69 -7 -107 -76 -141 -53 -26 -166 -55
-223 -57 -29 -1 -29 -1 -5 -8 14 -4 63 -4 110 0 47 4 86 6 87 5 2 -1 -12 -17
-30 -34 -44 -43 -132 -72 -238 -79 -94 -6 -110 1 -91 40 14 28 32 164 25 184
-8 20 -46 33 -99 33 -38 0 -46 4 -54 24 -6 18 -20 27 -47 32 l-37 7 79 38 c61
29 101 58 170 124 133 128 186 172 236 194 54 25 63 25 100 4z m136 -205 c-3
-7 -5 -2 -5 12 0 14 2 19 5 13 2 -7 2 -19 0 -25z m-1180 -238 l-6 -30 134 0
c74 0 135 4 135 9 0 5 -7 14 -15 21 -8 7 -15 16 -15 21 0 5 61 9 136 9 l136 0
-4 -30 -5 -30 80 0 80 0 -7 -46 c-3 -26 -6 -57 -6 -70 0 -23 -2 -24 -85 -24
-78 0 -85 -2 -85 -20 0 -19 -7 -20 -116 -20 -111 0 -115 1 -109 20 6 19 2 20
-134 20 -134 0 -141 -1 -141 -20 0 -19 -7 -20 -116 -20 -111 0 -115 1 -109 20
6 19 2 20 -75 20 l-81 0 7 63 c4 34 9 65 11 70 2 4 38 7 79 7 74 0 87 7 59 30
-8 7 -15 16 -15 21 0 5 61 9 136 9 l137 0 -6 -30z m1138 -120 c-3 -5 -12 -10
-18 -10 -7 0 -6 4 3 10 19 12 23 12 15 0z m-519 -137 c-3 -16 -24 -172 -46
-348 -22 -176 -46 -333 -52 -349 -20 -50 -61 -66 -165 -66 -51 0 -93 3 -93 6
0 3 11 15 24 25 16 13 26 33 30 66 4 27 9 65 12 86 l6 37 -60 0 c-69 0 -66 3
-77 -95 -3 -33 -9 -75 -12 -92 l-5 -33 -99 0 c-55 0 -99 3 -99 8 0 15 91 738
96 760 l4 22 271 0 271 0 -6 -27z m-590 -30 c-3 -21 -22 -162 -41 -313 -19
-151 -37 -290 -40 -307 l-6 -33 -219 0 -220 0 0 23 c0 12 18 164 40 337 22
173 40 318 40 323 0 4 102 7 226 7 l226 0 -6 -37z m247 -600 c-6 -47 -18 -73
-33 -73 -4 0 -6 10 -4 23 12 82 16 97 29 97 12 0 13 -10 8 -47z"/>
<path d="M2405 1968 c-2 -7 -5 -30 -7 -50 l-4 -38 57 0 c63 0 69 6 69 66 l0
34 -55 0 c-36 0 -57 -4 -60 -12z"/>
<path d="M2376 1744 c-3 -9 -6 -31 -6 -50 l0 -34 59 0 59 0 4 46 c2 25 1 47
-1 50 -2 2 -28 4 -57 4 -38 0 -53 -4 -58 -16z"/>
<path d="M1886 1918 c-3 -7 -7 -32 -9 -55 l-5 -43 38 0 c43 0 50 10 50 71 0
38 -1 39 -35 39 -20 0 -37 -6 -39 -12z"/>
<path d="M1850 1656 c0 -7 -3 -34 -6 -60 l-7 -46 40 0 c39 0 41 1 47 38 12 77
10 82 -34 82 -27 0 -40 -4 -40 -14z"/>
<path d="M822 2394 c-23 -16 -29 -53 -11 -71 8 -8 5 -21 -9 -49 l-19 -38 -5
59 c-7 80 -16 85 -153 85 -155 0 -150 6 -142 -161 l5 -135 -29 -16 c-27 -16
-29 -21 -28 -80 0 -35 4 -101 8 -148 l7 -85 -68 -220 c-54 -174 -66 -225 -58
-242 9 -22 14 -23 139 -23 91 0 132 4 139 13 6 6 26 64 46 127 38 126 42 125
25 0 -17 -128 -45 -120 405 -120 278 0 377 3 396 13 23 11 26 23 42 132 17
118 17 120 -3 148 -14 19 -19 37 -14 55 9 44 75 584 75 619 0 22 -6 36 -19 43
-12 6 -100 10 -215 10 l-196 0 10 25 c23 61 -10 75 -178 75 -99 0 -132 -3
-150 -16z m285 -46 c-3 -7 -12 -30 -21 -50 l-16 -38 231 0 231 0 -6 -27 c-3
-16 -22 -154 -42 -308 -20 -154 -41 -291 -48 -305 -18 -41 -70 -60 -160 -60
l-79 0 22 24 c21 22 26 52 55 285 l32 261 -149 -2 -148 -3 -19 -42 -19 -43
145 0 144 0 -5 -22 c-5 -23 -45 -324 -45 -340 0 -4 -56 -8 -124 -8 -142 0
-129 10 -142 -112 l-7 -68 243 0 c236 0 244 1 267 22 l23 21 0 -26 c0 -15 -4
-27 -10 -27 -154 -2 -724 1 -727 3 -2 2 8 102 22 220 14 119 25 224 25 232 0
10 -10 15 -34 15 l-34 0 80 183 c64 146 78 185 69 199 -6 10 -11 20 -11 23 0
3 59 5 131 5 101 0 130 -3 126 -12z m-373 -95 c3 -42 6 -98 6 -125 l0 -48
-100 0 c-116 0 -106 -14 -114 148 l-5 102 103 0 103 0 7 -77z m-50 -284 c3
-34 6 -91 6 -125 l0 -64 -99 0 -98 0 -7 77 c-3 42 -6 98 -6 125 l0 48 99 0 98
0 7 -61z m-4 -262 c0 -7 -17 -62 -37 -122 l-38 -110 -95 0 -96 0 35 123 35
122 98 0 c73 0 98 -3 98 -13z m471 -122 l-16 -34 -70 -1 -71 0 4 35 4 35 83 0
82 0 -16 -35z"/>
<path d="M984 1855 c-6 -42 -8 -78 -5 -80 7 -8 69 -6 74 3 3 4 8 40 12 80 l7
72 -39 0 -40 0 -9 -75z"/>
<path d="M203 1198 c-7 -12 -13 -88 -17 -193 l-1 -40 48 -3 c46 -3 49 -2 60
27 10 27 16 31 48 31 57 0 80 26 90 100 6 44 6 67 -2 76 -15 19 -214 20 -226
2z m202 -55 c-14 -88 -10 -83 -74 -83 -50 0 -59 -3 -64 -20 -3 -12 -14 -20
-26 -20 -23 0 -27 26 -15 114 l7 46 89 0 89 0 -6 -37z"/>
<path d="M280 1110 c0 -26 3 -30 29 -30 24 0 29 5 33 30 4 28 3 30 -29 30 -30
0 -33 -3 -33 -30z"/>
<path d="M493 1198 c-6 -7 -10 -20 -10 -29 0 -9 -12 -52 -28 -96 -35 -98 -31
-115 27 -111 33 2 45 8 53 26 5 12 14 22 20 22 6 0 15 -10 20 -22 7 -17 20
-24 48 -26 21 -2 44 1 51 7 8 7 16 7 23 0 6 -6 51 -9 109 -7 96 3 99 4 102 27
l4 24 12 -24 c11 -23 15 -24 134 -25 78 -1 125 3 131 10 5 6 12 45 16 86 4 41
11 84 16 95 5 12 6 -7 2 -45 -4 -36 -8 -83 -8 -105 l0 -40 99 -3 c83 -2 100 0
111 14 11 15 12 16 18 0 8 -21 80 -22 98 0 11 14 13 14 21 0 11 -20 91 -22
106 -3 6 7 12 30 15 52 l4 40 1 -41 c1 -22 7 -45 14 -52 8 -8 47 -12 110 -12
115 0 109 -7 127 133 15 116 15 117 -104 117 -108 0 -125 -4 -125 -34 0 -20
-1 -19 -13 4 -17 34 -78 41 -99 11 -14 -19 -14 -19 -26 0 -14 21 -79 27 -112
9 -13 -7 -21 -7 -25 0 -9 15 -188 13 -203 -2 -9 -9 -15 -9 -24 0 -28 28 -118
6 -118 -29 0 -17 -15 -9 -25 14 -8 18 -19 23 -58 25 -27 2 -55 -2 -62 -8 -10
-8 -19 -8 -34 -1 -11 6 -60 11 -110 11 -101 0 -110 -6 -112 -72 -1 -69 -16
-74 -22 -8 -4 35 -13 67 -20 72 -20 13 -143 9 -154 -4z m141 -40 c3 -13 6 -49
6 -80 0 -51 -2 -58 -20 -58 -11 0 -20 5 -20 10 0 6 -18 10 -39 10 -22 0 -43
-4 -46 -10 -3 -5 -15 -10 -25 -10 -17 0 -17 5 8 80 l26 80 52 0 c45 0 52 -3
58 -22z m263 -41 c-8 -90 -11 -94 -68 -102 -28 -4 -53 -4 -56 -1 -4 3 7 6 24
6 36 0 43 13 43 76 0 42 -1 44 -29 44 -32 0 -35 -5 -46 -77 -6 -37 -10 -43
-31 -43 -25 0 -25 0 -18 73 3 39 9 75 11 80 2 4 43 7 90 7 l86 0 -6 -63z m154
8 c7 -30 15 -55 19 -55 3 0 18 25 33 55 24 49 30 55 58 55 30 0 31 -2 26 -32
-3 -18 -9 -54 -13 -80 -5 -37 -10 -48 -25 -48 -13 0 -19 9 -21 33 l-3 32 -18
-32 c-13 -24 -25 -33 -43 -33 -19 0 -28 7 -36 33 l-12 32 -8 -32 c-6 -24 -14
-33 -30 -33 -19 0 -20 4 -14 46 3 26 6 62 6 80 0 32 2 34 34 34 34 0 35 -1 47
-55z m367 38 c-2 -13 -15 -19 -48 -21 -72 -5 -80 -42 -9 -42 58 0 45 -24 -14
-28 -42 -3 -47 -6 -47 -28 0 -19 -5 -24 -25 -24 -22 0 -25 4 -25 34 0 18 3 54
6 80 l7 46 79 0 c70 0 79 -2 76 -17z m159 -45 c29 -58 32 -61 32 -32 2 69 12
94 38 94 23 0 25 -3 20 -32 -3 -18 -9 -54 -13 -80 -6 -46 -7 -48 -40 -48 -28
0 -36 6 -58 42 l-25 42 -7 -42 c-5 -33 -11 -42 -26 -42 -18 0 -19 6 -16 80 l3
80 30 0 c28 0 34 -6 62 -62z m343 48 c0 -30 -13 -46 -36 -46 -13 0 -24 5 -24
10 0 6 -15 10 -34 10 -30 0 -35 -4 -40 -30 -3 -16 -9 -43 -12 -60 -4 -23 -11
-30 -28 -30 -21 0 -22 3 -19 58 7 108 1 102 103 102 71 0 90 -3 90 -14z m-985
-81 c-4 -36 -10 -64 -12 -61 -3 2 -2 34 2 71 4 36 10 64 12 61 3 -2 2 -34 -2
-71z m521 48 c-3 -16 -8 -50 -12 -78 -5 -38 -9 -45 -15 -30 -4 11 -6 29 -4 40
2 11 7 37 10 58 3 20 11 37 16 37 6 0 8 -12 5 -27z m241 -45 c-2 -13 -4 -5 -4
17 -1 22 1 32 4 23 2 -10 2 -28 0 -40z m201 -30 c-2 -25 -8 -34 -25 -36 -18
-3 -23 1 -23 20 0 13 -5 29 -12 36 -9 9 -4 12 26 12 36 0 37 -1 34 -32z m-545
-45 c-7 -2 -21 -2 -30 0 -10 3 -4 5 12 5 17 0 24 -2 18 -5z m475 0 c-10 -2
-26 -2 -35 0 -10 3 -2 5 17 5 19 0 27 -2 18 -5z"/>
<path d="M552 1115 c-17 -37 -15 -45 13 -45 22 0 25 4 25 35 0 42 -21 47 -38
10z"/>
<path d="M2172 1198 c-5 -7 -15 -53 -21 -103 -14 -111 -14 -101 5 -119 12 -12
38 -16 114 -16 54 0 101 4 104 8 2 4 10 57 17 116 11 92 11 109 -2 117 -22 14
-205 11 -217 -3z m198 -48 c0 -27 -3 -30 -30 -30 -16 0 -30 5 -30 10 0 6 -16
10 -35 10 -23 0 -35 -5 -35 -14 0 -7 -3 -34 -6 -60 -7 -45 -6 -46 21 -46 16 0
26 -3 23 -6 -4 -3 -27 -2 -52 1 -44 7 -46 9 -46 40 0 18 3 53 6 79 l7 46 88 0
89 0 0 -30z m-14 -82 c-3 -13 -6 -29 -6 -35 0 -7 -11 -13 -25 -13 -18 0 -25 5
-25 19 0 11 -3 26 -6 35 -5 13 1 16 31 16 34 0 37 -2 31 -22z"/>
<path d="M2462 1198 c-7 -7 -12 -19 -12 -28 0 -9 -14 -54 -30 -99 -35 -96 -31
-111 31 -111 32 0 42 5 51 25 14 31 36 32 40 3 3 -23 4 -23 178 -24 96 0 180
3 186 8 7 5 15 43 19 85 4 42 11 86 16 97 5 13 5 -3 1 -39 -4 -33 -7 -80 -7
-105 l0 -45 99 -3 c69 -2 102 1 107 9 4 7 7 42 7 78 0 36 5 79 11 94 8 20 8
34 1 48 -9 17 -22 19 -103 19 -59 0 -97 -4 -105 -12 -9 -9 -15 -9 -24 0 -16
16 -84 15 -98 0 -6 -7 -17 -22 -25 -33 -14 -20 -14 -20 -15 1 0 31 -20 44 -70
44 -56 0 -70 -12 -63 -54 3 -17 1 -47 -5 -66 -9 -34 -9 -33 -17 30 -4 36 -12
71 -17 78 -14 16 -140 16 -156 0z m142 -70 c10 -91 8 -108 -14 -108 -11 0 -20
5 -20 10 0 6 -20 10 -45 10 -25 0 -45 -4 -45 -10 0 -5 -9 -10 -20 -10 -11 0
-20 1 -20 3 0 2 11 35 24 74 13 39 22 74 18 77 -3 3 22 6 55 6 l60 0 7 -52z
m167 -3 c7 -30 15 -55 19 -55 3 0 18 25 33 55 24 49 30 55 58 55 29 0 31 -2
26 -29 -3 -15 -9 -51 -13 -80 -6 -44 -10 -51 -29 -51 -18 0 -21 4 -17 30 2 17
2 30 -2 30 -3 0 -12 -13 -21 -30 -22 -43 -62 -42 -77 3 l-12 32 -8 -32 c-6
-24 -14 -33 -30 -33 -19 0 -20 4 -14 53 3 28 6 64 6 80 0 24 4 27 34 27 34 0
35 -1 47 -55z m369 51 c0 -25 -17 -36 -55 -36 -28 0 -45 -5 -48 -14 -8 -20 2
-26 46 -26 56 0 43 -24 -16 -28 -42 -3 -47 -6 -47 -28 0 -19 -5 -24 -25 -24
-22 0 -25 4 -25 34 0 18 3 54 6 80 l7 46 78 0 c44 0 79 -2 79 -4z m-62 -163
c-10 -2 -26 -2 -35 0 -10 3 -2 5 17 5 19 0 27 -2 18 -5z"/>
<path d="M2517 1108 c-13 -32 -13 -33 11 -36 31 -5 35 1 27 37 -9 40 -22 39
-38 -1z"/>
</g>
</svg>
